<?xml version="1.0" encoding="UTF-8"?>
<svg id="Layer_2" data-name="Layer 2" xmlns="http://www.w3.org/2000/svg" viewBox="0 0 97.52 97.52">
  <defs>
    <style>
      .cls-1 {
        fill: #0a66c2;
        stroke-width: 0px;
      }
    </style>
  </defs>
  <g id="Layer_1-2" data-name="Layer 1-2">
    <path class="cls-1" d="M48.76,0C21.83,0,0,21.83,0,48.76s21.83,48.76,48.76,48.76,48.76-21.83,48.76-48.76S75.69,0,48.76,0ZM33.4,75.82h-11.59v-37.42h11.59v37.42ZM27.54,33.5c-3.79,0-6.85-3.09-6.85-6.91s3.07-6.91,6.85-6.91,6.85,3.09,6.85,6.91-3.07,6.91-6.85,6.91ZM76.82,75.82h-11.53v-19.64c0-5.39-2.05-8.4-6.31-8.4-4.64,0-7.06,3.13-7.06,8.4v19.64h-11.12v-37.42h11.12v5.04s3.34-6.18,11.28-6.18,13.62,4.85,13.62,14.87v23.69Z"/>
  </g>
</svg>